aste this fragment into your HTML
<svg xmlns="http://www.w3.org/2000/svg" x="0px" y="0px"
width="30" height="30"
viewBox="0 0 172 172"
style=" fill:#000000;"><g fill="none" fill-rule="nonzero" stroke="none" stroke-width="1" stroke-linecap="butt" stroke-linejoin="miter" stroke-miterlimit="10" stroke-dasharray="" stroke-dashoffset="0" font-family="none" font-weight="none" font-size="none" text-anchor="none" style="mix-blend-mode: normal"><path d="M0,172v-172h172v172z" fill="none"></path><g fill="#000000"><path d="M101.26276,-0.08958c8.76053,17.65293 -31.3676,28.54609 -35.09427,43.24635c-3.41133,13.50773 23.82289,29.20417 23.85156,29.20417c-4.13947,-5.58427 -7.13083,-10.19888 -11.2875,-18.90208c-7.02907,-14.71747 41.47314,-29.90417 22.53021,-53.54844zM130.27656,24.06432c0,0 -30.59522,1.84739 -32.16042,20.49219c-0.69373,8.30187 8.03993,12.73597 8.28646,18.77891c0.21213,4.9364 -5.21823,9.03672 -5.21823,9.03672c0,0 8.95896,-1.37448 12.03776,-8.90235c3.4056,-8.34773 -5.73486,-14.43967 -4.71433,-21.13047c0.97467,-6.3984 21.76875,-18.275 21.76875,-18.275zM73.16719,72.37214c0,0 -31.44375,-0.41782 -31.44375,8.33125c-0.00573,9.14467 41.16874,9.78429 70.56927,4.16562c0,0 6.66983,-3.65482 8.75677,-5.62135c-19.264,3.85853 -62.07005,2.74358 -62.07005,-0.60469c0,-3.08453 14.18776,-6.27083 14.18776,-6.27083zM135.77474,72.60729c-3.45428,-0.14485 -7.2352,0.95469 -10.49245,3.28099c6.80547,-1.47347 12.54167,2.71419 12.54167,7.54739c0,10.85893 -15.5987,21.14167 -15.5987,21.14167c0,0 24.15391,-2.77842 24.15391,-20.63776c0,-7.3745 -4.8473,-11.09086 -10.60442,-11.33229zM62.01406,88.47474c-4.9192,-0.00573 -12.23932,3.89857 -12.23932,7.64817c0,7.54507 37.00535,13.35983 64.39922,2.34036l-9.48463,-5.96849c-18.57027,6.09453 -52.8118,4.13849 -42.67526,-4.02005zM68.96797,104.56614c-6.7596,0 -11.14192,4.5468 -11.14192,7.87214c0,10.29707 40.35191,10.64823 56.34791,0.17917l-10.16771,-6.33802c-11.9368,5.47533 -41.94695,6.22165 -35.03828,-1.71328zM39.67422,120.34401c-9.63568,-0.30201 -14.05339,4.62143 -14.05339,8.64479c0,21.38533 104.65573,20.36068 104.65573,-1.50052c0,-3.6292 -4.04164,-5.35565 -5.50937,-6.18125c8.54267,20.898 -86.63828,19.46548 -86.63828,7.13308c0,-2.80933 5.03987,-5.67439 11.45547,-4.36719c0,0 -2.35165,-2.73086 -5.45339,-3.26979c-1.59172,-0.27448 -3.08024,-0.41596 -4.45677,-0.45911zM146.37917,136.42422c-16.60947,16.25973 -62.33226,26.13048 -104.65573,16.0914c42.52413,17.23441 104.45506,3.86633 104.65573,-16.0914z"></path></g></g></svg>